<mxfile host="drawio-plugin" modified="2022-10-02T13:37:36.912Z" agent="5.0 (Windows NT 6.2; Win64; x64) AppleWebKit/537.36 (KHTML, like Gecko) Chrome/89.0.4389.90 Safari/537.36" version="15.5.4" etag="IwCxfQXjt_kcbMjseGo2" type="embed"><diagram id="WFurOOoOa7dwolOu4cRL" name="Page-1"><mxGraphModel dx="753" dy="452" grid="1" gridSize="10" guides="1" tooltips="1" connect="1" arrows="1" fold="1" page="1" pageScale="1" pageWidth="850" pageHeight="1100" math="0" shadow="0"><root><mxCell id="0"/><mxCell id="1" parent="0"/><mxCell id="2" value="" style="sketch=0;html=1;dashed=0;whitespace=wrap;fillColor=#2875E2;strokeColor=#ffffff;points=[[0.005,0.63,0],[0.1,0.2,0],[0.9,0.2,0],[0.5,0,0],[0.995,0.63,0],[0.72,0.99,0],[0.5,1,0],[0.28,0.99,0]];shape=mxgraph.kubernetes.icon;prIcon=api" vertex="1" parent="1"><mxGeometry x="170" y="150" width="50" height="48" as="geometry"/></mxCell><mxCell id="3" value="" style="image;html=1;image=img/lib/clip_art/computers/Virtual_Application_128x128.png" vertex="1" parent="1"><mxGeometry x="320" y="134" width="80" height="80" as="geometry"/></mxCell><mxCell id="4" value="" style="endArrow=classic;html=1;rounded=0;" edge="1" parent="1"><mxGeometry relative="1" as="geometry"><mxPoint x="222" y="164.32999999999998" as="sourcePoint"/><mxPoint x="322" y="164.32999999999998" as="targetPoint"/></mxGeometry></mxCell><mxCell id="5" value="요청" style="edgeLabel;resizable=0;html=1;align=center;verticalAlign=middle;" connectable="0" vertex="1" parent="4"><mxGeometry relative="1" as="geometry"/></mxCell><mxCell id="6" value="Amazon ElastiCache for Redis" style="sketch=0;outlineConnect=0;fontColor=#232F3E;gradientColor=none;strokeColor=#ffffff;fillColor=#232F3E;dashed=0;verticalLabelPosition=middle;verticalAlign=bottom;align=center;html=1;whiteSpace=wrap;fontSize=10;fontStyle=1;spacing=3;shape=mxgraph.aws4.productIcon;prIcon=mxgraph.aws4.elasticache_for_redis;" vertex="1" parent="1"><mxGeometry x="553" y="114" width="80" height="120" as="geometry"/></mxCell><mxCell id="7" value="" style="verticalLabelPosition=bottom;html=1;verticalAlign=top;align=center;strokeColor=none;fillColor=#00BEF2;shape=mxgraph.azure.scheduler;pointerEvents=1;" vertex="1" parent="1"><mxGeometry x="456.75" y="250" width="40" height="50" as="geometry"/></mxCell><mxCell id="8" value="" style="outlineConnect=0;dashed=0;verticalLabelPosition=bottom;verticalAlign=top;align=center;html=1;shape=mxgraph.aws3.queue;fillColor=#D9A741;gradientColor=none;" vertex="1" parent="1"><mxGeometry x="440" y="70" width="73.5" height="48" as="geometry"/></mxCell><mxCell id="9" value="" style="endArrow=classic;html=1;rounded=0;entryX=1;entryY=0.983;entryDx=0;entryDy=0;entryPerimeter=0;" edge="1" parent="1"><mxGeometry relative="1" as="geometry"><mxPoint x="320" y="182.84" as="sourcePoint"/><mxPoint x="220" y="182.85400000000007" as="targetPoint"/></mxGeometry></mxCell><mxCell id="10" value="응답" style="edgeLabel;resizable=0;html=1;align=center;verticalAlign=middle;" connectable="0" vertex="1" parent="9"><mxGeometry relative="1" as="geometry"/></mxCell><mxCell id="11" value="" style="endArrow=classic;html=1;rounded=0;entryX=0;entryY=1;entryDx=0;entryDy=0;entryPerimeter=0;" edge="1" parent="1" target="8"><mxGeometry relative="1" as="geometry"><mxPoint x="400" y="173.58" as="sourcePoint"/><mxPoint x="440" y="174" as="targetPoint"/></mxGeometry></mxCell><mxCell id="13" value="" style="endArrow=classic;html=1;rounded=0;" edge="1" parent="1"><mxGeometry relative="1" as="geometry"><mxPoint x="490" y="250" as="sourcePoint"/><mxPoint x="550" y="190" as="targetPoint"/></mxGeometry></mxCell><mxCell id="14" value="" style="endArrow=classic;html=1;rounded=0;entryX=0.5;entryY=1;entryDx=0;entryDy=0;entryPerimeter=0;" edge="1" parent="1"><mxGeometry relative="1" as="geometry"><mxPoint x="486" y="245" as="sourcePoint"/><mxPoint x="485.75" y="123" as="targetPoint"/></mxGeometry></mxCell><mxCell id="15" value="갱신" style="edgeLabel;resizable=0;html=1;align=center;verticalAlign=middle;" connectable="0" vertex="1" parent="1"><mxGeometry x="291" y="175.32999999999993" as="geometry"><mxPoint x="194" y="17" as="offset"/></mxGeometry></mxCell><mxCell id="16" value="1 TPS" style="rounded=0;whiteSpace=wrap;html=1;" vertex="1" parent="1"><mxGeometry x="436.75" y="310" width="80" height="30" as="geometry"/></mxCell><mxCell id="17" value="큐 적재" style="edgeLabel;resizable=0;html=1;align=center;verticalAlign=middle;" connectable="0" vertex="1" parent="1"><mxGeometry x="420" y="145.99999999999994" as="geometry"><mxPoint x="-2" as="offset"/></mxGeometry></mxCell><mxCell id="20" value="" style="endArrow=classic;html=1;rounded=0;entryX=0;entryY=1;entryDx=0;entryDy=0;entryPerimeter=0;" edge="1" parent="1"><mxGeometry relative="1" as="geometry"><mxPoint x="430" y="78.42" as="sourcePoint"/><mxPoint x="390" y="134.00000000000006" as="targetPoint"/></mxGeometry></mxCell><mxCell id="21" value="데이터 조회" style="edgeLabel;resizable=0;html=1;align=center;verticalAlign=middle;" connectable="0" vertex="1" parent="1"><mxGeometry x="410" y="99.99999999999994" as="geometry"><mxPoint x="-2" as="offset"/></mxGeometry></mxCell><mxCell id="22" value="" style="endArrow=classic;html=1;rounded=0;" edge="1" parent="1"><mxGeometry relative="1" as="geometry"><mxPoint x="465.75" y="125" as="sourcePoint"/><mxPoint x="466" y="245" as="targetPoint"/></mxGeometry></mxCell><mxCell id="23" value="폴링" style="edgeLabel;resizable=0;html=1;align=center;verticalAlign=middle;" connectable="0" vertex="1" parent="22"><mxGeometry relative="1" as="geometry"><mxPoint y="-10" as="offset"/></mxGeometry></mxCell><mxCell id="25" value="2500 TPS" style="rounded=0;whiteSpace=wrap;html=1;" vertex="1" parent="1"><mxGeometry x="320" y="230" width="80" height="30" as="geometry"/></mxCell></root></mxGraphModel></diagram></mxfile>